<svg clip-rule="evenodd" fill-rule="evenodd" height="512" image-rendering="optimizeQuality" shape-rendering="geometricPrecision" text-rendering="geometricPrecision" viewBox="0 0 512 512" width="512" xmlns="http://www.w3.org/2000/svg" xmlns:xodm="http://www.corel.com/coreldraw/odm/2003"><g id="Layer_x0020_1"><path d="m256 .09c141.33 0 255.91 114.58 255.91 255.91s-114.58 255.91-255.91 255.91-255.91-114.58-255.91-255.91 114.58-255.91 255.91-255.91zm-52.05 135.69c-42.99 1.97-66.21 25.16-68.16 68.17-1.58 34.58-1.58 69.53 0 104.1 1.95 43.01 25.17 66.21 68.16 68.17 34.58 1.57 69.53 1.57 104.11 0 43.01-1.97 66.19-25.16 68.16-68.17 1.57-34.58 1.56-69.52 0-104.1-1.96-42.94-25.22-66.21-68.16-68.17-34.58-1.57-69.53-1.57-104.11 0zm140.88 52.53c0 11.65-9.45 21.1-21.11 21.1-11.64 0-21.13-9.49-21.13-21.13.6-11.85 8.93-21.13 21.13-21.13 11.22 0 20.9 9.73 21.11 21.16zm-11.76-.03c0-5.16-4.19-9.32-9.35-9.32-5.39 0-9.08 4.1-9.34 9.34 0 5.19 4.16 9.3 9.34 9.3 4.94 0 9.26-4.22 9.35-9.32zm-77.07 115.91c-26.61 0-48.19-21.57-48.19-48.19 0-26.64 21.55-48.19 48.19-48.19 26.62 0 48.2 21.57 48.2 48.19 0 26.63-21.57 48.19-48.2 48.19zm-.01-11.78c20.72-.51 36.4-15.31 36.4-36.41 0-20.09-16.29-36.38-36.39-36.38-20.08 0-36.4 16.3-36.4 36.38.62 20.32 15.73 36.41 36.39 36.41zm-59.23-36.41c0 32.73 26.5 59.26 59.24 59.26 32.71 0 59.24-26.56 59.24-59.26s-26.53-59.26-59.24-59.26c-32.98.65-59.24 25.95-59.24 59.26zm59.24-71.03c39.25 0 71.06 31.77 71.06 71.03 0 39.27-31.79 71.05-71.06 71.05-39.23 0-71.05-31.81-71.05-71.05 0-39.25 31.81-71.03 71.05-71.03zm-52.55-60.95c35-1.59 70.11-1.59 105.11 0 49.17 2.24 77.18 30.25 79.43 79.42 1.58 35.01 1.58 70.11 0 105.12-2.26 49.24-30.18 77.17-79.43 79.42-35 1.59-70.11 1.59-105.11 0-49.22-2.24-77.19-30.19-79.42-79.42-1.6-35-1.6-70.11 0-105.12 2.23-49.23 30.2-77.17 79.42-79.42zm104.07 22.83c37.29 1.7 55.94 20.34 57.63 57.63 1.57 34.31 1.57 68.73 0 103.04-1.69 37.36-20.35 55.93-57.63 57.63-34.31 1.56-68.73 1.56-103.03 0-37.29-1.7-55.93-20.27-57.63-57.63-1.57-34.31-1.57-68.73 0-103.04 1.69-37.29 20.27-55.92 57.63-57.63 34.3-1.56 68.72-1.56 103.03 0zm-.51 11.77c-33.88-1.55-68.13-1.55-102.02 0-31.16 1.42-44.95 15.27-46.37 46.37-1.55 33.88-1.55 68.14 0 102.02 1.42 31.17 15.27 44.96 46.37 46.37 33.89 1.54 68.14 1.54 102.02 0 31.1-1.41 44.97-15.2 46.37-46.37 1.55-33.88 1.56-68.14 0-102.02-1.4-31.05-15.33-44.96-46.37-46.37zm-51.01-146.71c-134.81 0-244.1 109.28-244.1 244.09s109.29 244.09 244.1 244.09 244.1-109.28 244.1-244.09-109.29-244.09-244.1-244.09z" fill-rule="nonzero"/></g></svg>