<svg width="32" height="32" viewBox="0 0 32 32" fill="none" xmlns="http://www.w3.org/2000/svg">
<path d="M16 0.00561523C24.8331 0.00561523 31.9944 7.16687 31.9944 16C31.9944 24.8331 24.8331 31.9944 16 31.9944C7.16687 31.9944 0.00561523 24.8331 0.00561523 16C0.00561523 7.16687 7.16687 0.00561523 16 0.00561523ZM12.7469 8.48624C10.06 8.60937 8.60874 10.0587 8.48687 12.7469C8.38812 14.9081 8.38812 17.0925 8.48687 19.2531C8.60874 21.9412 10.06 23.3912 12.7469 23.5137C14.9081 23.6119 17.0925 23.6119 19.2537 23.5137C21.9419 23.3906 23.3906 21.9412 23.5137 19.2531C23.6119 17.0919 23.6112 14.9081 23.5137 12.7469C23.3912 10.0631 21.9375 8.60874 19.2537 8.48624C17.0925 8.38812 14.9081 8.38812 12.7469 8.48624ZM21.5519 11.7694C21.5519 12.4975 20.9612 13.0881 20.2325 13.0881C19.505 13.0881 18.9119 12.495 18.9119 11.7675C18.9494 11.0269 19.47 10.4469 20.2325 10.4469C20.9337 10.4469 21.5387 11.055 21.5519 11.7694ZM20.8169 11.7675C20.8169 11.445 20.555 11.185 20.2325 11.185C19.8956 11.185 19.665 11.4412 19.6487 11.7687C19.6487 12.0931 19.9087 12.35 20.2325 12.35C20.5412 12.35 20.8112 12.0862 20.8169 11.7675ZM16 19.0119C14.3369 19.0119 12.9881 17.6637 12.9881 16C12.9881 14.335 14.335 12.9881 16 12.9881C17.6637 12.9881 19.0125 14.3362 19.0125 16C19.0125 17.6644 17.6644 19.0119 16 19.0119ZM15.9994 18.2756C17.2944 18.2437 18.2744 17.3187 18.2744 16C18.2744 14.7444 17.2562 13.7262 16 13.7262C14.745 13.7262 13.725 14.745 13.725 16C13.7637 17.27 14.7081 18.2756 15.9994 18.2756ZM12.2975 16C12.2975 18.0456 13.9537 19.7037 16 19.7037C18.0444 19.7037 19.7025 18.0437 19.7025 16C19.7025 13.9562 18.0444 12.2962 16 12.2962C13.9387 12.3369 12.2975 13.9181 12.2975 16ZM16 11.5606C18.4531 11.5606 20.4412 13.5462 20.4412 16C20.4412 18.4544 18.4544 20.4406 16 20.4406C13.5481 20.4406 11.5594 18.4525 11.5594 16C11.5594 13.5469 13.5475 11.5606 16 11.5606ZM12.7156 7.75124C14.9031 7.65187 17.0975 7.65187 19.285 7.75124C22.3581 7.89124 24.1087 9.64187 24.2494 12.715C24.3481 14.9031 24.3481 17.0969 24.2494 19.285C24.1081 22.3625 22.3631 24.1081 19.285 24.2487C17.0975 24.3481 14.9031 24.3481 12.7156 24.2487C9.63937 24.1087 7.89124 22.3619 7.75187 19.285C7.65187 17.0975 7.65187 14.9031 7.75187 12.715C7.89124 9.63812 9.63937 7.89187 12.7156 7.75124ZM19.22 9.17812C21.5506 9.28437 22.7162 10.4494 22.8219 12.78C22.92 14.9244 22.92 17.0756 22.8219 19.22C22.7162 21.555 21.55 22.7156 19.22 22.8219C17.0756 22.9194 14.9244 22.9194 12.7806 22.8219C10.45 22.7156 9.28499 21.555 9.17874 19.22C9.08062 17.0756 9.08062 14.9244 9.17874 12.78C9.28437 10.4494 10.4456 9.28499 12.7806 9.17812C14.9244 9.08062 17.0756 9.08062 19.22 9.17812ZM19.1881 9.91374C17.0706 9.81687 14.93 9.81687 12.8119 9.91374C10.8644 10.0025 10.0025 10.8681 9.91374 12.8119C9.81687 14.9294 9.81687 17.0706 9.91374 19.1881C10.0025 21.1362 10.8681 21.9981 12.8119 22.0862C14.93 22.1825 17.0706 22.1825 19.1881 22.0862C21.1319 21.9981 21.9987 21.1362 22.0862 19.1881C22.1831 17.0706 22.1837 14.9294 22.0862 12.8119C21.9987 10.8712 21.1281 10.0019 19.1881 9.91374ZM16 0.744365C7.57437 0.744365 0.74374 7.57437 0.74374 16C0.74374 24.4256 7.57437 31.2556 16 31.2556C24.4256 31.2556 31.2562 24.4256 31.2562 16C31.2562 7.57437 24.4256 0.744365 16 0.744365Z" fill="white"/>
</svg>
